# Blender 3.6.1
# www.blender.org
mtllib pointLL.mtl
o Cube.170
v 0.090536 0.090155 0.020902
v 0.027170 0.090155 0.088858
v -0.063373 0.090155 0.067955
v -0.090536 0.090155 -0.020902
v -0.027170 0.090155 -0.088858
v 0.063373 0.090155 -0.067955
v 0.074502 -0.090155 0.017200
v 0.022358 -0.090155 0.073124
v -0.052150 -0.090155 0.055922
v -0.074502 -0.090155 -0.017200
v -0.022358 -0.090155 -0.073124
v 0.052150 -0.090155 -0.055922
vn 0.9533 -0.0788 -0.2914
vn -0.0000 1.0000 -0.0000
vn -0.7291 -0.0788 -0.6798
vn -0.2243 -0.0788 0.9713
vn 0.2243 -0.0788 -0.9713
vn -0.9533 -0.0788 0.2914
vn 0.7291 -0.0788 0.6798
vn -0.0000 -1.0000 -0.0000
vt 0.973776 0.062963
vt 0.973565 0.064008
vt 0.971259 0.063447
vt 0.971433 0.062586
vt 0.973904 0.061903
vt 0.973946 0.060837
vt 0.973904 0.059771
vt 0.973777 0.058712
vt 0.971538 0.061714
vt 0.971573 0.060837
vt 0.971538 0.059960
vt 0.971433 0.059088
vt 0.973566 0.057666
vt 0.971260 0.058227
s 0
usemtl Material.002
f 6/1/1 1/2/1 7/3/1 12/4/1
f 1/2/2 6/1/2 5/5/2 4/6/2 3/7/2 2/8/2
f 4/6/3 5/5/3 11/9/3 10/10/3
f 2/8/4 3/7/4 9/11/4 8/12/4
f 5/5/5 6/1/5 12/4/5 11/9/5
f 3/7/6 4/6/6 10/10/6 9/11/6
f 1/13/7 2/8/7 8/12/7 7/14/7
f 11/9/8 12/4/8 7/14/8 8/12/8 9/11/8 10/10/8
